<?xml version="1.0" encoding="UTF-8" standalone="no"?><!DOCTYPE svg PUBLIC "-//W3C//DTD SVG 1.1//EN" "http://www.w3.org/Graphics/SVG/1.1/DTD/svg11.dtd"><!-- Generated by graphviz version 2.40.1 (20161225.0304)
 --><!-- Title: MemoryManagement Pages: 1 --><svg xmlns="http://www.w3.org/2000/svg" xmlns:xlink="http://www.w3.org/1999/xlink" width="843pt" height="417pt" viewBox="0.00 0.00 843.07 416.85">
<g id="graph0" class="graph" transform="scale(1 1) rotate(0) translate(4 412.85)">
<title>MemoryManagement</title>
<polygon fill="#ffffff" stroke="transparent" points="-4,4 -4,-412.85 839.0746,-412.85 839.0746,4 -4,4"/>
<!-- MemoryPool -->
<g id="node1" class="node">
<title>MemoryPool</title>
<polygon fill="#d3d3d3" stroke="#000000" points="659.1386,-.5 659.1386,-372.5 821.8216,-372.5 821.8216,-.5 659.1386,-.5"/>
<text text-anchor="middle" x="708.3616" y="-182.3" font-family="Helvetica,sans-Serif" font-size="14.00" fill="#000000">Memory Pool</text>
<polyline fill="none" stroke="#000000" points="757.5846,-.5 757.5846,-372.5 "/>
<text text-anchor="middle" x="789.7031" y="-355.9" font-family="Helvetica,sans-Serif" font-size="14.00" fill="#000000">0x1000</text>
<polyline fill="none" stroke="#000000" points="757.5846,-347.7 821.8216,-347.7 "/>
<text text-anchor="middle" x="789.7031" y="-331.1" font-family="Helvetica,sans-Serif" font-size="14.00" fill="#000000"> </text>
<polyline fill="none" stroke="#000000" points="757.5846,-322.9 821.8216,-322.9 "/>
<text text-anchor="middle" x="789.7031" y="-306.3" font-family="Helvetica,sans-Serif" font-size="14.00" fill="#000000"> </text>
<polyline fill="none" stroke="#000000" points="757.5846,-298.1 821.8216,-298.1 "/>
<text text-anchor="middle" x="789.7031" y="-281.5" font-family="Helvetica,sans-Serif" font-size="14.00" fill="#000000">0x10D0</text>
<polyline fill="none" stroke="#000000" points="757.5846,-273.3 821.8216,-273.3 "/>
<text text-anchor="middle" x="789.7031" y="-256.7" font-family="Helvetica,sans-Serif" font-size="14.00" fill="#000000"> </text>
<polyline fill="none" stroke="#000000" points="757.5846,-248.5 821.8216,-248.5 "/>
<text text-anchor="middle" x="789.7031" y="-231.9" font-family="Helvetica,sans-Serif" font-size="14.00" fill="#000000"> </text>
<polyline fill="none" stroke="#000000" points="757.5846,-223.7 821.8216,-223.7 "/>
<text text-anchor="middle" x="789.7031" y="-207.1" font-family="Helvetica,sans-Serif" font-size="14.00" fill="#000000"> </text>
<polyline fill="none" stroke="#000000" points="757.5846,-198.9 821.8216,-198.9 "/>
<text text-anchor="middle" x="789.7031" y="-182.3" font-family="Helvetica,sans-Serif" font-size="14.00" fill="#000000">0x1228</text>
<polyline fill="none" stroke="#000000" points="757.5846,-174.1 821.8216,-174.1 "/>
<text text-anchor="middle" x="789.7031" y="-157.5" font-family="Helvetica,sans-Serif" font-size="14.00" fill="#000000"> </text>
<polyline fill="none" stroke="#000000" points="757.5846,-149.3 821.8216,-149.3 "/>
<text text-anchor="middle" x="789.7031" y="-132.7" font-family="Helvetica,sans-Serif" font-size="14.00" fill="#000000"> </text>
<polyline fill="none" stroke="#000000" points="757.5846,-124.5 821.8216,-124.5 "/>
<text text-anchor="middle" x="789.7031" y="-107.9" font-family="Helvetica,sans-Serif" font-size="14.00" fill="#000000"> </text>
<polyline fill="none" stroke="#000000" points="757.5846,-99.7 821.8216,-99.7 "/>
<text text-anchor="middle" x="789.7031" y="-83.1" font-family="Helvetica,sans-Serif" font-size="14.00" fill="#000000"> </text>
<polyline fill="none" stroke="#000000" points="757.5846,-74.9 821.8216,-74.9 "/>
<text text-anchor="middle" x="789.7031" y="-58.3" font-family="Helvetica,sans-Serif" font-size="14.00" fill="#000000"> </text>
<polyline fill="none" stroke="#000000" points="757.5846,-50.1 821.8216,-50.1 "/>
<text text-anchor="middle" x="789.7031" y="-33.5" font-family="Helvetica,sans-Serif" font-size="14.00" fill="#000000"> </text>
<polyline fill="none" stroke="#000000" points="757.5846,-25.3 821.8216,-25.3 "/>
<text text-anchor="middle" x="789.7031" y="-8.7" font-family="Helvetica,sans-Serif" font-size="14.00" fill="#000000"> </text>
</g>
<!-- Block1 -->
<g id="node2" class="node">
<title>Block1</title>
<polygon fill="none" stroke="#000000" points="0,-223.5 0,-347.5 182.9382,-347.5 182.9382,-223.5 0,-223.5"/>
<text text-anchor="middle" x="30.9495" y="-281.3" font-family="Helvetica,sans-Serif" font-size="14.00" fill="#000000">Block 1</text>
<polyline fill="none" stroke="#000000" points="61.899,-223.5 61.899,-347.5 "/>
<text text-anchor="middle" x="122.4186" y="-330.9" font-family="Helvetica,sans-Serif" font-size="14.00" fill="#000000">Address: 0x1000</text>
<polyline fill="none" stroke="#000000" points="61.899,-322.7 182.9382,-322.7 "/>
<text text-anchor="middle" x="122.4186" y="-306.1" font-family="Helvetica,sans-Serif" font-size="14.00" fill="#000000">Size: 200</text>
<polyline fill="none" stroke="#000000" points="61.899,-297.9 182.9382,-297.9 "/>
<text text-anchor="middle" x="122.4186" y="-281.3" font-family="Helvetica,sans-Serif" font-size="14.00" fill="#000000">Free: No</text>
<polyline fill="none" stroke="#000000" points="61.899,-273.1 182.9382,-273.1 "/>
<text text-anchor="middle" x="122.4186" y="-256.5" font-family="Helvetica,sans-Serif" font-size="14.00" fill="#000000">Prev</text>
<polyline fill="none" stroke="#000000" points="61.899,-248.3 182.9382,-248.3 "/>
<text text-anchor="middle" x="122.4186" y="-231.7" font-family="Helvetica,sans-Serif" font-size="14.00" fill="#000000">Next</text>
</g>
<!-- Block1&#45;&gt;MemoryPool -->
<g id="edge5" class="edge">
<title>Block1:addr-&gt;MemoryPool:1</title>
<path fill="none" stroke="#000000" d="M182.4691,-335.5C246.4766,-335.5 733.8982,-429.3327 785.128,-381.7944"/>
<polygon fill="#000000" stroke="#000000" points="788.4091,-383.0406 789.4801,-372.5 782.0697,-380.0721 788.4091,-383.0406"/>
</g>
<!-- Block2 -->
<g id="node3" class="node">
<title>Block2</title>
<polygon fill="none" stroke="#000000" points="218.9382,-173.5 218.9382,-297.5 404.2004,-297.5 404.2004,-173.5 218.9382,-173.5"/>
<text text-anchor="middle" x="249.8877" y="-231.3" font-family="Helvetica,sans-Serif" font-size="14.00" fill="#000000">Block 2</text>
<polyline fill="none" stroke="#000000" points="280.8372,-173.5 280.8372,-297.5 "/>
<text text-anchor="middle" x="342.5188" y="-280.9" font-family="Helvetica,sans-Serif" font-size="14.00" fill="#000000">Address: 0x10D0</text>
<polyline fill="none" stroke="#000000" points="280.8372,-272.7 404.2004,-272.7 "/>
<text text-anchor="middle" x="342.5188" y="-256.1" font-family="Helvetica,sans-Serif" font-size="14.00" fill="#000000">Size: 300</text>
<polyline fill="none" stroke="#000000" points="280.8372,-247.9 404.2004,-247.9 "/>
<text text-anchor="middle" x="342.5188" y="-231.3" font-family="Helvetica,sans-Serif" font-size="14.00" fill="#000000">Free: No</text>
<polyline fill="none" stroke="#000000" points="280.8372,-223.1 404.2004,-223.1 "/>
<text text-anchor="middle" x="342.5188" y="-206.5" font-family="Helvetica,sans-Serif" font-size="14.00" fill="#000000">Prev</text>
<polyline fill="none" stroke="#000000" points="280.8372,-198.3 404.2004,-198.3 "/>
<text text-anchor="middle" x="342.5188" y="-181.7" font-family="Helvetica,sans-Serif" font-size="14.00" fill="#000000">Next</text>
</g>
<!-- Block1&#45;&gt;Block2 -->
<g id="edge1" class="edge">
<title>Block1:next-&gt;Block2</title>
<path fill="none" stroke="#000000" d="M182.4691,-235.5C191.0185,-235.5 199.8864,-235.5 208.7881,-235.5"/>
<polygon fill="#000000" stroke="#000000" points="208.8375,-239.0001 218.8375,-235.5 208.8374,-232.0001 208.8375,-239.0001"/>
</g>
<!-- Block2&#45;&gt;MemoryPool -->
<g id="edge6" class="edge">
<title>Block2:addr-&gt;MemoryPool:2</title>
<path fill="none" stroke="#000000" d="M404.2004,-285.5C503.8174,-285.5 536.8765,-283.6764 623.1386,-333.5 643.7071,-345.38 637.4102,-363.4044 659.1386,-373 725.1408,-402.1477 770.4611,-424.019 821.4801,-373 832.8125,-361.6676 838.6735,-309.574 829.4964,-291.61"/>
<polygon fill="#000000" stroke="#000000" points="831.555,-288.7783 821.4801,-285.5 827.3117,-294.3456 831.555,-288.7783"/>
</g>
<!-- Block2&#45;&gt;Block1 -->
<g id="edge4" class="edge">
<title>Block2:prev-&gt;Block1</title>
<path fill="none" stroke="#000000" d="M404.5693,-210.5C441.6954,-210.5 435.7403,-91.0113 218.9382,-173 194.3218,-182.3093 171.3896,-198.7812 151.9547,-216.2971"/>
<polygon fill="#000000" stroke="#000000" points="149.3473,-213.9422 144.4043,-223.3133 154.1123,-219.07 149.3473,-213.9422"/>
</g>
<!-- Block3 -->
<g id="node4" class="node">
<title>Block3</title>
<polygon fill="none" stroke="#000000" points="440.2004,-123.5 440.2004,-247.5 623.1386,-247.5 623.1386,-123.5 440.2004,-123.5"/>
<text text-anchor="middle" x="471.1499" y="-181.3" font-family="Helvetica,sans-Serif" font-size="14.00" fill="#000000">Block 3</text>
<polyline fill="none" stroke="#000000" points="502.0994,-123.5 502.0994,-247.5 "/>
<text text-anchor="middle" x="562.619" y="-230.9" font-family="Helvetica,sans-Serif" font-size="14.00" fill="#000000">Address: 0x1228</text>
<polyline fill="none" stroke="#000000" points="502.0994,-222.7 623.1386,-222.7 "/>
<text text-anchor="middle" x="562.619" y="-206.1" font-family="Helvetica,sans-Serif" font-size="14.00" fill="#000000">Size: 524</text>
<polyline fill="none" stroke="#000000" points="502.0994,-197.9 623.1386,-197.9 "/>
<text text-anchor="middle" x="562.619" y="-181.3" font-family="Helvetica,sans-Serif" font-size="14.00" fill="#000000">Free: Yes</text>
<polyline fill="none" stroke="#000000" points="502.0994,-173.1 623.1386,-173.1 "/>
<text text-anchor="middle" x="562.619" y="-156.5" font-family="Helvetica,sans-Serif" font-size="14.00" fill="#000000">Prev</text>
<polyline fill="none" stroke="#000000" points="502.0994,-148.3 623.1386,-148.3 "/>
<text text-anchor="middle" x="562.619" y="-131.7" font-family="Helvetica,sans-Serif" font-size="14.00" fill="#000000">Next</text>
</g>
<!-- Block2&#45;&gt;Block3 -->
<g id="edge2" class="edge">
<title>Block2:next-&gt;Block3</title>
<path fill="none" stroke="#000000" d="M404.2004,-185.5C412.551,-185.5 421.2094,-185.5 429.9033,-185.5"/>
<polygon fill="#000000" stroke="#000000" points="430.1093,-189.0001 440.1093,-185.5 430.1092,-182.0001 430.1093,-189.0001"/>
</g>
<!-- Block3&#45;&gt;MemoryPool -->
<g id="edge7" class="edge">
<title>Block3:addr-&gt;MemoryPool:3</title>
<path fill="none" stroke="#000000" d="M622.6695,-235.5C685.8936,-235.5 609.0285,-334.448 659.1386,-373 716.3246,-416.9959 770.4611,-424.019 821.4801,-373 834.2441,-360.236 840.4949,-228.1923 828.1972,-194.3619"/>
<polygon fill="#000000" stroke="#000000" points="830.637,-191.8294 821.4801,-186.5 825.315,-196.3765 830.637,-191.8294"/>
</g>
<!-- Block3&#45;&gt;Block2 -->
<g id="edge3" class="edge">
<title>Block3:prev-&gt;Block2</title>
<path fill="none" stroke="#000000" d="M622.6695,-160.5C659.6202,-160.5 652.4916,-43.2626 440.2004,-123 415.327,-132.3425 392.1142,-148.9168 372.4443,-166.5196"/>
<polygon fill="#000000" stroke="#000000" points="370.0647,-163.9529 365.083,-173.3035 374.8085,-169.1004 370.0647,-163.9529"/>
</g>
</g>
</svg>